# ProBuilder 4.5.2
# https://unity3d.com/unity/features/worldbuilding/probuilder
# 3/21/2022 7:55:48 PM

mtllib ./Door.mtl
o Door

g Door
v 0.6 0.1999999 10.19
v 0.36 0.1999999 10.19
v 0.6 2.256 10.19
v 0.36 2.256 10.19
v -0.36 0.1999999 10.19
v -0.6 0.1999999 10.19
v -0.36 2.256 10.19
v -0.6 2.256 10.19
v 0.6 2.6 10.19
v 0.36 2.6 10.19
v -0.36 2.6 10.19
v -0.6 2.6 10.19
v 0.36 0.1999999 10.09
v 0.6 0.1999999 10.09
v 0.36 2.256 10.09
v 0.6 2.256 10.09
v -0.6 0.1999999 10.09
v -0.36 0.1999999 10.09
v -0.6 2.256 10.09
v -0.36 2.256 10.09
v 0.36 2.6 10.09
v 0.6 2.6 10.09
v -0.6 2.6 10.09
v -0.36 2.6 10.09

vt 1.5 -1.5
vt 0.9 -1.5
vt 1.5 1.07
vt 0.9 1.07
vt -0.9000001 -1.5
vt -1.5 -1.5
vt -0.9000001 1.07
vt -1.5 1.07
vt 1.5 1.5
vt 0.9 1.5
vt -0.9000001 1.5
vt -1.5 1.5
vt -0.9 -1.5
vt -0.9 1.07
vt 0.9000001 -1.5
vt 0.9000001 1.07
vt -0.9 1.5
vt 0.9000001 1.5
vt -0.9000001 0.05000019
vt 0.9 0.05000019
vt -0.9000001 -0.04999981
vt 0.9 -0.04999981
vt 0.04999981 -1.5
vt -0.05000019 -1.5
vt 0.04999981 1.07
vt -0.05000019 1.07
vt 0.05000019 -1.5
vt -0.04999981 -1.5
vt 0.05000019 1.07
vt -0.04999981 1.07

vn 0 0 1
vn 0 0 -1
vn 0 -1 0
vn 1 0 0
vn -1 0 0

usemtl Red
f 3/3/1 4/4/1 2/2/1 1/1/1
f 7/7/1 8/8/1 6/6/1 5/5/1
f 9/9/1 10/10/1 4/4/1 3/3/1
f 11/11/1 12/12/1 8/8/1 7/7/1
f 10/10/1 11/11/1 7/7/1 4/4/1
f 15/14/2 16/8/2 14/6/2 13/13/2
f 19/3/2 20/16/2 18/15/2 17/1/2
f 21/17/2 22/12/2 16/8/2 15/14/2
f 23/9/2 24/18/2 20/16/2 19/3/2
f 24/18/2 21/17/2 15/14/2 20/16/2
f 20/21/3 15/22/3 4/20/3 7/19/3
f 20/25/4 7/26/4 5/24/4 18/23/4
f 4/29/5 15/30/5 13/28/5 2/27/5

